<svg width="51" height="64" viewBox="0 0 51 64" fill="none" xmlns="http://www.w3.org/2000/svg">
<path d="M31.875 0H6.375C4.68424 0 3.06274 0.674284 1.86719 1.87452C0.67165 3.07475 0 4.70261 0 6.4V57.6C0 59.2974 0.67165 60.9253 1.86719 62.1255C3.06274 63.3257 4.68424 64 6.375 64H44.625C46.3158 64 47.9373 63.3257 49.1328 62.1255C50.3283 60.9253 51 59.2974 51 57.6V19.2L31.875 0ZM17.3591 49.3184C18.2357 49.3184 19.2111 49.1232 19.788 48.896L20.2279 51.1776C19.6924 51.4464 18.4875 51.7344 16.9224 51.7344C12.4695 51.7344 10.1745 48.9536 10.1745 45.2672C10.1713 40.8576 13.3078 38.4 17.2061 38.4C18.717 38.4 19.8613 38.7072 20.3777 38.976L19.7848 41.2992C19.008 40.98 18.1761 40.818 17.3368 40.8224C15.0227 40.8224 13.2249 42.224 13.2249 45.1008C13.2281 47.6864 14.7613 49.3184 17.3591 49.3184ZM25.2992 51.7344C23.8298 51.7344 22.3762 51.3536 21.6495 50.9504L22.2424 48.5312C23.0265 48.9344 24.2314 49.3376 25.4745 49.3376C26.8132 49.3376 27.5209 48.7808 27.5209 47.936C27.5209 47.1296 26.9089 46.6688 25.3598 46.112C23.2178 45.3632 21.8248 44.176 21.8248 42.2944C21.8248 40.0896 23.6576 38.4 26.6985 38.4C28.1488 38.4 29.2198 38.7072 29.9848 39.0496L29.3346 41.4112C28.4949 41.0004 27.572 40.7901 26.6379 40.7968C25.3757 40.7968 24.7669 41.376 24.7669 42.0448C24.7669 42.8704 25.4936 43.2352 27.1543 43.8688C29.4302 44.7136 30.5012 45.904 30.5012 47.7248C30.498 49.8944 28.8341 51.7344 25.2992 51.7344ZM35.6267 51.7344C34.1573 51.7344 32.7038 51.3536 31.977 50.9504L32.5699 48.5312C33.354 48.9344 34.5589 49.3376 35.802 49.3376C37.1408 49.3376 37.8484 48.7808 37.8484 47.936C37.8484 47.1296 37.2364 46.6688 35.6873 46.112C33.5453 45.3632 32.1523 44.176 32.1523 42.2944C32.1523 40.0896 33.9851 38.4 37.026 38.4C38.4763 38.4 39.5473 38.7072 40.3123 39.0496L39.6621 41.4112C38.8224 41.0004 37.8995 40.7901 36.9654 40.7968C35.7032 40.7968 35.0944 41.376 35.0944 42.0448C35.0944 42.8704 35.8211 43.2352 37.4818 43.8688C39.7577 44.7136 40.8287 45.904 40.8287 47.7248C40.8287 49.8944 39.1616 51.7344 35.6267 51.7344ZM28.6875 22.4V6.4L44.625 22.4H28.6875Z" fill="#FBB533"/>
</svg>
