<svg width="24" height="24" viewBox="0 0 24 24" fill="none" xmlns="http://www.w3.org/2000/svg">
<path d="M12 0.296082C5.37 0.296082 0 5.66608 0 12.2961C0 17.6061 3.435 22.0911 8.205 23.6811C8.805 23.7861 9.03 23.4261 9.03 23.1111C9.03 22.8261 9.015 21.8811 9.015 20.8761C6 21.4311 5.22 20.1411 4.98 19.4661C4.845 19.1211 4.26 18.0561 3.75 17.7711C3.33 17.5461 2.73 16.9911 3.735 16.9761C4.68 16.9611 5.355 17.8461 5.58 18.2061C6.66 20.0211 8.385 19.5111 9.075 19.1961C9.18 18.4161 9.495 17.8911 9.84 17.5911C7.17 17.2911 4.38 16.2561 4.38 11.6661C4.38 10.3611 4.845 9.28108 5.61 8.44108C5.49 8.14108 5.07 6.91108 5.73 5.26108C5.73 5.26108 6.735 4.94608 9.03 6.49108C9.99 6.22108 11.01 6.08608 12.03 6.08608C13.05 6.08608 14.07 6.22108 15.03 6.49108C17.325 4.93108 18.33 5.26108 18.33 5.26108C18.99 6.91108 18.57 8.14108 18.45 8.44108C19.215 9.28108 19.68 10.3461 19.68 11.6661C19.68 16.2711 16.875 17.2911 14.205 17.5911C14.64 17.9661 15.015 18.6861 15.015 19.8111C15.015 21.4161 15 22.7061 15 23.1111C15 23.4261 15.225 23.8011 15.825 23.6811C18.2076 22.8775 20.278 21.3466 21.7446 19.3041C23.2112 17.2617 24 14.8105 24 12.2961C24 5.66608 18.63 0.296082 12 0.296082Z" fill="#FBB533"/>
</svg>
