<svg width="51" height="64" viewBox="0 0 51 64" fill="none" xmlns="http://www.w3.org/2000/svg">
<path d="M31.875 0H6.375C4.68424 0 3.06274 0.674284 1.86719 1.87452C0.67165 3.07475 0 4.70261 0 6.4V57.6C0 59.2974 0.67165 60.9253 1.86719 62.1255C3.06274 63.3257 4.68424 64 6.375 64H44.625C46.3158 64 47.9373 63.3257 49.1328 62.1255C50.3283 60.9253 51 59.2974 51 57.6V19.2L31.875 0ZM28.6875 6.4L44.625 22.4H28.6875V6.4ZM14.4426 51.2H12.0201V46.6848H8.01656V51.2H5.57175V40.4064H8.01656V44.5536H12.0232V40.4064H14.4457L14.4426 51.2ZM24.0051 42.4576H21.0694V51.2H18.6277V42.4576H15.7431V40.4064H24.0051V42.4576ZM34.4824 51.2L34.323 47.0688C34.2688 45.7728 34.2274 44.2016 34.2274 42.6304H34.1764C33.8449 44.0096 33.3954 45.5456 32.9811 46.8128L31.6742 51.024H29.7713L28.6269 46.8416C28.239 45.4533 27.9135 44.0481 27.6516 42.6304H27.6165C27.5496 44.0896 27.5081 45.7536 27.4284 47.0976L27.2372 51.2H24.99L25.6785 40.4064H28.9138L29.9689 44.0096C30.3004 45.2608 30.6382 46.6048 30.8741 47.8688H30.9283C31.2311 46.6176 31.5945 45.1936 31.9483 43.9936L33.0926 40.4064H36.2674L36.8571 51.2H34.4824ZM45.4283 51.2H38.709V40.4064H41.1538V49.1488H45.4314L45.4283 51.2Z" fill="#FBB533"/>
</svg>
