<svg width="60" height="64" viewBox="0 0 60 64" fill="none" xmlns="http://www.w3.org/2000/svg">
<path d="M36 18V0H18C16.4087 0 14.8826 0.632141 13.7574 1.75736C12.6321 2.88258 12 4.4087 12 6V36.34C13.28 36.792 14.356 37.664 15.072 38.792C16.4858 37.4338 18.2676 36.5211 20.1959 36.1674C22.1242 35.8137 24.1139 36.0346 25.9177 36.8027C27.7214 37.5707 29.2596 38.852 30.3411 40.4872C31.4225 42.1225 31.9994 44.0395 32 46C32 47.776 31.228 49.372 30 50.472C31.276 52.172 32 54.268 32 56.472V58C32 60.252 31.256 62.328 30 64H54C55.5913 64 57.1174 63.3679 58.2426 62.2426C59.3679 61.1174 60 59.5913 60 58V24H42C40.4087 24 38.8826 23.3679 37.7574 22.2426C36.6321 21.1174 36 19.5913 36 18ZM40 18V1L59 20H42C41.4696 20 40.9609 19.7893 40.5858 19.4142C40.2107 19.0391 40 18.5304 40 18ZM10 40C9.46957 40 8.96086 40.2107 8.58579 40.5858C8.21071 40.9609 8 41.4696 8 42V58C8 58.5304 7.78929 59.0391 7.41421 59.4142C7.03914 59.7893 6.53043 60 6 60C5.46957 60 4.96086 59.7893 4.58579 59.4142C4.21071 59.0391 4 58.5304 4 58V56C4 55.4696 3.78929 54.9609 3.41421 54.5858C3.03914 54.2107 2.53043 54 2 54C1.46957 54 0.960859 54.2107 0.585786 54.5858C0.210714 54.9609 0 55.4696 0 56V58C0 59.5913 0.632141 61.1174 1.75736 62.2426C2.88258 63.3679 4.4087 64 6 64C7.5913 64 9.11742 63.3679 10.2426 62.2426C11.3679 61.1174 12 59.5913 12 58V42C12 41.4696 11.7893 40.9609 11.4142 40.5858C11.0391 40.2107 10.5304 40 10 40ZM16 46C16 44.4087 16.6321 42.8826 17.7574 41.7574C18.8826 40.6321 20.4087 40 22 40C23.5913 40 25.1174 40.6321 26.2426 41.7574C27.3679 42.8826 28 44.4087 28 46C28 46.5304 27.7893 47.0391 27.4142 47.4142C27.0391 47.7893 26.5304 48 26 48C25.4696 48 24.9609 47.7893 24.5858 47.4142C24.2107 47.0391 24 46.5304 24 46C24 45.4696 23.7893 44.9609 23.4142 44.5858C23.0391 44.2107 22.5304 44 22 44C21.4696 44 20.9609 44.2107 20.5858 44.5858C20.2107 44.9609 20 45.4696 20 46V47.528C20 47.8991 20.1033 48.2629 20.2983 48.5787C20.4932 48.8944 20.7722 49.1497 21.104 49.316L24.684 51.104C25.6807 51.6025 26.5189 52.3688 27.1046 53.3169C27.6903 54.265 28.0003 55.3576 28 56.472V58C28 59.5913 27.3679 61.1174 26.2426 62.2426C25.1174 63.3679 23.5913 64 22 64C20.4087 64 18.8826 63.3679 17.7574 62.2426C16.6321 61.1174 16 59.5913 16 58C16 57.4696 16.2107 56.9609 16.5858 56.5858C16.9609 56.2107 17.4696 56 18 56C18.5304 56 19.0391 56.2107 19.4142 56.5858C19.7893 56.9609 20 57.4696 20 58C20 58.5304 20.2107 59.0391 20.5858 59.4142C20.9609 59.7893 21.4696 60 22 60C22.5304 60 23.0391 59.7893 23.4142 59.4142C23.7893 59.0391 24 58.5304 24 58V56.472C24 56.1009 23.8967 55.7371 23.7017 55.4213C23.5068 55.1056 23.2278 54.8503 22.896 54.684L19.316 52.896C18.3193 52.3975 17.4811 51.6312 16.8954 50.6831C16.3097 49.735 15.9997 48.6424 16 47.528V46Z" fill="#FBB533"/>
</svg>
