<svg width="24" height="24" viewBox="0 0 24 24" fill="none" xmlns="http://www.w3.org/2000/svg">
<path d="M0 1.71903C0 0.769531 0.789 3.05176e-05 1.7625 3.05176e-05H22.2375C23.211 3.05176e-05 24 0.769531 24 1.71903V22.281C24 23.2305 23.211 24 22.2375 24H1.7625C0.789 24 0 23.2305 0 22.281V1.71903ZM7.4145 20.091V9.25353H3.813V20.091H7.4145ZM5.6145 7.77303C6.87 7.77303 7.6515 6.94203 7.6515 5.90103C7.629 4.83753 6.8715 4.02903 5.6385 4.02903C4.4055 4.02903 3.6 4.83903 3.6 5.90103C3.6 6.94203 4.3815 7.77303 5.5905 7.77303H5.6145ZM12.9765 20.091V14.0385C12.9765 13.7145 13.0005 13.3905 13.0965 13.1595C13.356 12.513 13.9485 11.8425 14.9445 11.8425C16.248 11.8425 16.7685 12.8355 16.7685 14.2935V20.091H20.37V13.875C20.37 10.545 18.594 8.99703 16.224 8.99703C14.313 8.99703 13.4565 10.047 12.9765 10.7865V10.824H12.9525L12.9765 10.7865V9.25353H9.3765C9.4215 10.2705 9.3765 20.091 9.3765 20.091H12.9765Z" fill="#FBB533"/>
</svg>
